# xmcd
#
# Track frame offsets: 
#        150
#        25187
#        51542
#        76115
#        90114
#        113640
#        134705
#        164555
#        187983
#        208032
#
# Disc length: 3055 seconds
#
# Revision: 1
# Processed by: cddbd v1.5.2PL0 Copyright (c) Steve Scherf et al.
# Submitted via: ExactAudioCopy v0.95b4
#
DISCID=7f0bed0a
DTITLE=Edith Nesbit - Drachen, Katzen, Königskinder
DYEAR=2006
DGENRE=Speech
TTITLE0=01 Königssöhne taugen nichts
TTITLE1=02 Auf der Suche nach dem Drachen
TTITLE2=03 Königstöchter schmecken nicht
TTITLE3=04 Das erste Flugzeug
TTITLE4=05 Feen einzuladen, vergisst man nicht
TTITLE5=06 Der Fluch der Fee Malevola
TTITLE6=07 Das einzige echte Küchenmädchen
TTITLE7=08 Die weiße Ratte muss jetzt wirklich helfen
TTITLE8=09 Hochzeit mit einer Maus
TTITLE9=Nichts ist unmöglich, wenn zwei Menschen sich von ganzem Herze
TTITLE9=n lieben
EXTD=
EXTT0=
EXTT1=
EXTT2=
EXTT3=
EXTT4=
EXTT5=
EXTT6=
EXTT7=
EXTT8=
EXTT9=
PLAYORDER=
